<svg xmlns="http://www.w3.org/2000/svg" width="207.191" height="43.275" viewBox="0 0 207.191 43.275">
  <g id="Grupo_2" data-name="Grupo 2" transform="translate(-572.787 468.462)">
    <path id="Caminho_1" data-name="Caminho 1" d="M877.573,297.9c.286.246.1.2.362.446a3.787,3.787,0,0,0,.537.344c5.842,3.3,14.34,2.076,20.229-.431.347-.147.2-.129.671-.034-.528.2-2.75,1.354-3.879,1.829-8.327,3.5-13.582,2.614-14.051,2.727-.345.083-.1-.128-.287.173.394.277.716.731,1.116,1.067.42.353.848.7,1.311,1.047a17.251,17.251,0,0,0,2.844,1.769,20.191,20.191,0,0,0,5.1,1.777,11.852,11.852,0,0,1,2.045.366h3.813l.621-.141a19.7,19.7,0,0,0,13.631-8.147c6.275-8.9,2.646-17.186,2.788-17.818-.442-.43,0-.392-1.295-1.271-4.114-2.789-9.425-3.353-14.344-2.807A40.77,40.77,0,0,0,887,281.949l-3.412,1.6a32.85,32.85,0,0,1,5.5-3.238c5.931-2.842,13.014-4.722,19.758-3.97l1.511.231c.73.066.243.114.413-.111l-1.05-1.166a19.872,19.872,0,0,0-33.393,19.249c.3,1.064,1.212,3.207,1.245,3.363" transform="translate(-296.292 -734.269)" fill="#fff" fill-rule="evenodd"/>
    <path id="Caminho_2" data-name="Caminho 2" d="M1204.578,295.859l7.259,0,.041-9.458c2.757-.135,3.18,1.41,4.505,3.919l3,5.551,8.14-.011c-.122-.494-2.483-4.869-2.941-5.791a11.145,11.145,0,0,0-2.81-3.763,5.1,5.1,0,0,0-1.126-.538l-.4-.236c2.3-.785,4.4-1.626,5.185-4.626a6.521,6.521,0,0,0-2.3-7.153c-2.093-1.464-5.754-1.245-8.659-1.244l-9.9.013Zm7.261-18.593,4.392.053c1.345.187,2.216.858,2.156,2.347-.11,2.706-4.554,2.414-6.545,2.3Z" transform="translate(-469.327 -735.985)" fill="#d4001c" fill-rule="evenodd"/>
    <path id="Caminho_3" data-name="Caminho 3" d="M1004.372,295.853l7.287-.035V286.4c2.849-.078,3.111,1.315,4.555,3.981l2.952,5.491h8.148c-.111-.5-2.531-5.032-2.963-5.87-1.471-2.855-1.814-2.71-4.365-4.419.916-.495,4.23-.853,5.24-4.664a6.547,6.547,0,0,0-2.3-7.171c-2.178-1.471-5.717-1.236-8.666-1.236l-9.89.015Zm7.282-18.581,4.37.048a2.207,2.207,0,0,1,1.436,3.879,3.072,3.072,0,0,1-1.656.6,18.3,18.3,0,0,1-4.148.152Z" transform="translate(-364.036 -735.983)" fill="#d4001c" fill-rule="evenodd"/>
    <path id="Caminho_4" data-name="Caminho 4" d="M1176.251,272.568l-7.2-.034c-.124,1.36-.023,9.055-.022,11.074,0,1.49.187,3.9-.366,5.122-1.289,2.853-5.85,2.763-7.146.14-.638-1.292-.425-3.546-.425-5.164l-.023-11.18-7.163,0c-.1.884-.031,7.282-.031,8.729,0,5.034-.673,10.435,4.039,13.488,3.089,2,11.074,2.231,14.353-.048,4.7-3.269,3.99-8.2,3.985-13.44,0-2.839.1-5.87-.007-8.684" transform="translate(-442.647 -735.995)" fill="#d4001c" fill-rule="evenodd"/>
    <path id="Caminho_5" data-name="Caminho 5" d="M1273.263,287.568V272.523l-7.18,0c-.123,1.09-.029,9.262-.029,11.087,0,2.841.681,7.14-3.883,7.209-4.721.072-4.058-4.33-4.057-7.111l-.012-11.18-7.194.02c-.13,2.108-.015,4.592-.016,6.741,0,2.291,0,4.583,0,6.873-.01,4.5,1.864,7.5,4.75,8.983,2.722,1.4,8.954,1.5,11.913.433A8.72,8.72,0,0,0,1273,289.04a12.158,12.158,0,0,1,.259-1.472" transform="translate(-493.66 -735.993)" fill="#d4001c" fill-rule="evenodd"/>
    <path id="Caminho_6" data-name="Caminho 6" d="M1054.724,295.877l7.408.006,1.145-3.843,8.175.024c.177.681.383,1.271.588,1.973a7.856,7.856,0,0,0,.7,1.856l7.426-.02-8.8-23.342-7.878.015Zm10.157-8.93a37.31,37.31,0,0,1,1.222-4.177c.346-1.187.819-2.978,1.27-4.042l2.539,8.2Z" transform="translate(-390.517 -735.998)" fill="#d4001c" fill-rule="evenodd"/>
    <path id="Caminho_7" data-name="Caminho 7" d="M1133.442,328.511v-2.192c-2.916-.161-6.264-.015-9.227-.015l-139.233.05.012,2.169Z" transform="translate(-353.838 -764.248)" fill="#fff" fill-rule="evenodd"/>
    <path id="Caminho_8" data-name="Caminho 8" d="M1109.285,295.875l7.285.007.007-8.636c1.769-.214,3.88.1,5.734-.119a8.188,8.188,0,0,0,4.316-1.589c2.165-1.659,3.231-5.387,2.033-8.828-1.032-2.963-3.743-4.189-7.591-4.182l-11.784.01Zm7.286-18.552,3.82.188a2.383,2.383,0,0,1,1.681,2.37c.013,2.59-3.024,2.813-5.5,2.548Z" transform="translate(-419.211 -735.998)" fill="#d4001c" fill-rule="evenodd"/>
    <path id="Caminho_9" data-name="Caminho 9" d="M985.175,295.89l7.266-.046-.008-23.313-7.258,0Z" transform="translate(-353.94 -735.998)" fill="#d4001c" fill-rule="evenodd"/>
    <path id="Caminho_10" data-name="Caminho 10" d="M923.325,290.562l.024-.225a13.382,13.382,0,0,1,2.147,2.951c3.122,6.639-1.219,13.613-5.511,18.172a39.139,39.139,0,0,1-5.566,4.786c2.276-.935,6.871-4.5,8.518-6.152a27.636,27.636,0,0,0,6.189-8.546c3.178-7.32.654-13.867-6.606-16.475a20.672,20.672,0,0,1-2.842-.929c-.17.225.317.177-.414.111l-1.511-.231c-6.744-.752-13.826,1.128-19.758,3.97a32.922,32.922,0,0,0-5.5,3.238l3.413-1.6a40.784,40.784,0,0,1,11.777-3.151c4.92-.547,10.231.018,14.345,2.807,1.3.88.853.842,1.295,1.271" transform="translate(-305.199 -741.956)" fill="#898ba8" fill-rule="evenodd"/>
    <path id="Caminho_11" data-name="Caminho 11" d="M873.965,299.146c.185-.3-.057-.089.287-.172.469-.113,5.723.776,14.051-2.727,1.129-.475,3.351-1.63,3.879-1.829-.466-.1-.324-.113-.671.034-5.889,2.507-14.387,3.73-20.229.43a3.743,3.743,0,0,1-.536-.344c-.266-.249-.076-.2-.362-.446l-.068.166a10.861,10.861,0,0,1-3.085-3.572,11.581,11.581,0,0,1-1.178-5.545c.08-5.383,3.141-10.161,6.215-13.959a40.953,40.953,0,0,1,6.947-6.5L883.243,262c-2.256.475-8.823,5.094-10.712,6.8a35.673,35.673,0,0,0-7.993,9.679c-2.02,3.842-3.868,9.148-1.621,13.967,1.7,3.655,5.338,5.63,9.107,6.284l1.51.194a.9.9,0,0,1,.43.226" transform="translate(-289.103 -730.46)" fill="#898ba8" fill-rule="evenodd"/>
    <path id="Caminho_12" data-name="Caminho 12" d="M989.473,342.027a2.343,2.343,0,0,0,.378,1.475,1.463,1.463,0,0,0,2.09.009,2.526,2.526,0,0,0,.369-1.579,2.087,2.087,0,0,0-.388-1.391,1.419,1.419,0,0,0-2.061,0,2.29,2.29,0,0,0-.388,1.485m-2.09-.01a3.483,3.483,0,0,1,.927-2.572,3.444,3.444,0,0,1,2.572-.927,3.52,3.52,0,0,1,2.6.908,3.4,3.4,0,0,1,.917,2.543,4.15,4.15,0,0,1-.4,1.939,2.832,2.832,0,0,1-1.153,1.182,3.816,3.816,0,0,1-1.882.426,4.308,4.308,0,0,1-1.9-.369,2.805,2.805,0,0,1-1.22-1.153,3.9,3.9,0,0,1-.463-1.977" transform="translate(-355.101 -770.703)" fill="#fff"/>
    <path id="Caminho_13" data-name="Caminho 13" d="M1009.551,341.652h.52a1.362,1.362,0,0,0,.851-.208.692.692,0,0,0,.246-.539.735.735,0,0,0-.218-.549,1.136,1.136,0,0,0-.8-.218h-.6Zm-2.1-2.894h3.48a2.386,2.386,0,0,1,1.7.539,2.034,2.034,0,0,1,.568,1.541,2.124,2.124,0,0,1-.615,1.608,2.679,2.679,0,0,1-1.891.577h-1.145v2.506h-2.1Z" transform="translate(-365.656 -770.829)" fill="#fff"/>
    <path id="Caminho_14" data-name="Caminho 14" d="M1024.792,338.758h5.6V340.2h-3.5v1.078h3.244v1.381h-3.244V344h3.6v1.532h-5.7Z" transform="translate(-374.775 -770.829)" fill="#fff"/>
    <path id="Caminho_15" data-name="Caminho 15" d="M1044.27,341.509h.889a2.792,2.792,0,0,0,.549-.095.534.534,0,0,0,.34-.208.669.669,0,0,0,.132-.4.605.605,0,0,0-.208-.5,1.222,1.222,0,0,0-.785-.18h-.917Zm-2.1,4.019v-6.771h3.489a4.916,4.916,0,0,1,1.475.17,1.51,1.51,0,0,1,.832.615,2.1,2.1,0,0,1,.075,2.071,1.921,1.921,0,0,1-.662.662,2.512,2.512,0,0,1-.738.275,1.807,1.807,0,0,1,.539.246,2.141,2.141,0,0,1,.341.359,4.222,4.222,0,0,1,.293.416l1.011,1.958h-2.364l-1.116-2.061a1.574,1.574,0,0,0-.378-.53.875.875,0,0,0-.511-.151h-.189v2.742Z" transform="translate(-383.915 -770.829)" fill="#fff"/>
    <path id="Caminho_16" data-name="Caminho 16" d="M1063.511,342.947l-.737-2.431-.747,2.431Zm.445,1.466h-2.373l-.34,1.116H1059.1l2.553-6.771h2.288l2.534,6.771h-2.193Z" transform="translate(-392.821 -770.829)" fill="#fff"/>
    <path id="Caminho_17" data-name="Caminho 17" d="M1081.121,340.29v3.7h.511a2.188,2.188,0,0,0,.936-.142,1.022,1.022,0,0,0,.435-.511,3,3,0,0,0,.161-1.172,2.271,2.271,0,0,0-.35-1.475,1.5,1.5,0,0,0-1.172-.4Zm-2.09-1.532h3.111a3.825,3.825,0,0,1,1.485.246,2.441,2.441,0,0,1,.936.718,2.86,2.86,0,0,1,.53,1.088,4.9,4.9,0,0,1,.17,1.305,4.613,4.613,0,0,1-.246,1.683,2.644,2.644,0,0,1-.69,1,2.163,2.163,0,0,1-.936.539,4.952,4.952,0,0,1-1.248.189h-3.111Z" transform="translate(-403.3 -770.829)" fill="#fff"/>
    <path id="Caminho_18" data-name="Caminho 18" d="M1098.932,342.027a2.342,2.342,0,0,0,.379,1.475,1.462,1.462,0,0,0,2.09.009,2.529,2.529,0,0,0,.369-1.579,2.086,2.086,0,0,0-.388-1.391,1.418,1.418,0,0,0-2.061,0,2.289,2.289,0,0,0-.388,1.485m-2.09-.01a3.484,3.484,0,0,1,.927-2.572,3.445,3.445,0,0,1,2.572-.927,3.521,3.521,0,0,1,2.6.908,3.4,3.4,0,0,1,.917,2.543,4.151,4.151,0,0,1-.4,1.939,2.832,2.832,0,0,1-1.154,1.182,3.816,3.816,0,0,1-1.882.426,4.307,4.307,0,0,1-1.9-.369,2.8,2.8,0,0,1-1.22-1.153,3.9,3.9,0,0,1-.463-1.977" transform="translate(-412.667 -770.703)" fill="#fff"/>
    <path id="Caminho_19" data-name="Caminho 19" d="M1119.09,341.509h.889a2.792,2.792,0,0,0,.549-.095.535.535,0,0,0,.34-.208.668.668,0,0,0,.133-.4.6.6,0,0,0-.208-.5,1.222,1.222,0,0,0-.785-.18h-.917Zm-2.1,4.019v-6.771h3.489a4.918,4.918,0,0,1,1.475.17,1.509,1.509,0,0,1,.832.615,2.1,2.1,0,0,1,.075,2.071,1.921,1.921,0,0,1-.662.662,2.51,2.51,0,0,1-.737.275,1.823,1.823,0,0,1,.539.246,2.166,2.166,0,0,1,.34.359,4.159,4.159,0,0,1,.293.416l1.012,1.958h-2.364l-1.116-2.061a1.572,1.572,0,0,0-.378-.53.874.874,0,0,0-.511-.151h-.189v2.742Z" transform="translate(-423.264 -770.829)" fill="#fff"/>
    <path id="Caminho_20" data-name="Caminho 20" d="M1155.316,338.758h2.09v5.106h3.272v1.664h-5.362Z" transform="translate(-443.419 -770.829)" fill="#fff"/>
    <path id="Caminho_21" data-name="Caminho 21" d="M1172.725,342.027a2.345,2.345,0,0,0,.378,1.475,1.463,1.463,0,0,0,2.09.009,2.525,2.525,0,0,0,.369-1.579,2.088,2.088,0,0,0-.388-1.391,1.419,1.419,0,0,0-2.062,0,2.292,2.292,0,0,0-.388,1.485m-2.09-.01a3.484,3.484,0,0,1,.927-2.572,3.445,3.445,0,0,1,2.572-.927,3.521,3.521,0,0,1,2.6.908,3.4,3.4,0,0,1,.917,2.543,4.154,4.154,0,0,1-.4,1.939,2.832,2.832,0,0,1-1.154,1.182,3.817,3.817,0,0,1-1.882.426,4.309,4.309,0,0,1-1.9-.369,2.8,2.8,0,0,1-1.22-1.153,3.9,3.9,0,0,1-.463-1.977" transform="translate(-451.476 -770.703)" fill="#fff"/>
    <path id="Caminho_22" data-name="Caminho 22" d="M1193.845,342.953v-1.409h3.234v2.875a6.5,6.5,0,0,1-1.636.87,5.644,5.644,0,0,1-1.693.227,4.1,4.1,0,0,1-1.967-.416,2.787,2.787,0,0,1-1.182-1.22,4.068,4.068,0,0,1-.416-1.863,3.932,3.932,0,0,1,.454-1.929,3,3,0,0,1,1.343-1.239,4.227,4.227,0,0,1,1.853-.331,5.278,5.278,0,0,1,1.674.2,2.289,2.289,0,0,1,.927.633,2.742,2.742,0,0,1,.548,1.088l-2.014.359a1.1,1.1,0,0,0-.426-.586,1.253,1.253,0,0,0-.757-.208,1.4,1.4,0,0,0-1.1.473,2.3,2.3,0,0,0-.407,1.513,2.366,2.366,0,0,0,.416,1.57,1.442,1.442,0,0,0,1.144.473,2.226,2.226,0,0,0,.671-.1,3.719,3.719,0,0,0,.728-.34v-.634Z" transform="translate(-461.757 -770.703)" fill="#fff"/>
    <path id="Caminho_23" data-name="Caminho 23" d="M1211.445,334.988h1.617l-1.495,1.381h-.9Zm-1.012,1.787h2.1v6.771h-2.1Z" transform="translate(-472.406 -768.846)" fill="#fff"/>
    <path id="Caminho_24" data-name="Caminho 24" d="M1220.174,343.161l1.986-.123a1.567,1.567,0,0,0,.265.737,1.128,1.128,0,0,0,.927.407.993.993,0,0,0,.681-.208.612.612,0,0,0,.246-.492.643.643,0,0,0-.227-.473,2.767,2.767,0,0,0-1.069-.388,4.55,4.55,0,0,1-1.958-.823,1.643,1.643,0,0,1-.6-1.305,1.791,1.791,0,0,1,.3-.983,1.972,1.972,0,0,1,.908-.728,4.218,4.218,0,0,1,1.664-.265,3.383,3.383,0,0,1,1.976.483,2.08,2.08,0,0,1,.813,1.541l-1.967.113a.923.923,0,0,0-1.022-.879.828.828,0,0,0-.549.151.48.48,0,0,0-.189.378.376.376,0,0,0,.151.293,1.733,1.733,0,0,0,.7.246,8.935,8.935,0,0,1,1.957.6,2.1,2.1,0,0,1,.87.757,1.89,1.89,0,0,1,.265,1,2.179,2.179,0,0,1-.36,1.2,2.291,2.291,0,0,1-1,.832,4.1,4.1,0,0,1-1.636.284,3.368,3.368,0,0,1-2.383-.662,2.627,2.627,0,0,1-.757-1.692" transform="translate(-477.528 -770.703)" fill="#fff"/>
    <path id="Caminho_25" data-name="Caminho 25" d="M1237.254,338.758h6.364v1.674h-2.137v5.1h-2.09v-5.1h-2.137Z" transform="translate(-486.511 -770.829)" fill="#fff"/>
    <rect id="Retângulo_3" data-name="Retângulo 3" width="2.099" height="6.771" transform="translate(759.512 -432.071)" fill="#fff"/>
    <path id="Caminho_26" data-name="Caminho 26" d="M1270.487,342.632l1.835.549a3.278,3.278,0,0,1-.586,1.3,2.467,2.467,0,0,1-.984.775,3.58,3.58,0,0,1-1.494.265,4.29,4.29,0,0,1-1.806-.322,2.845,2.845,0,0,1-1.21-1.125,3.816,3.816,0,0,1-.511-2.071,3.527,3.527,0,0,1,.9-2.582,4.066,4.066,0,0,1,4.539-.378,2.982,2.982,0,0,1,1.088,1.589l-1.844.406a1.753,1.753,0,0,0-.2-.454,1.323,1.323,0,0,0-.435-.359,1.14,1.14,0,0,0-.567-.133,1.247,1.247,0,0,0-1.1.568,2.453,2.453,0,0,0-.284,1.334,2.551,2.551,0,0,0,.34,1.541,1.186,1.186,0,0,0,.965.416,1.171,1.171,0,0,0,.908-.341,2.036,2.036,0,0,0,.444-.974" transform="translate(-501.487 -770.703)" fill="#fff"/>
    <path id="Caminho_27" data-name="Caminho 27" d="M1286.21,342.027a2.342,2.342,0,0,0,.378,1.475,1.462,1.462,0,0,0,2.09.009,2.524,2.524,0,0,0,.369-1.579,2.086,2.086,0,0,0-.388-1.391,1.419,1.419,0,0,0-2.061,0,2.291,2.291,0,0,0-.388,1.485m-2.09-.01a3.483,3.483,0,0,1,.927-2.572,3.444,3.444,0,0,1,2.572-.927,3.52,3.52,0,0,1,2.6.908,3.4,3.4,0,0,1,.917,2.543,4.153,4.153,0,0,1-.4,1.939,2.832,2.832,0,0,1-1.154,1.182,3.816,3.816,0,0,1-1.882.426,4.305,4.305,0,0,1-1.9-.369,2.8,2.8,0,0,1-1.22-1.153,3.9,3.9,0,0,1-.463-1.977" transform="translate(-511.159 -770.703)" fill="#fff"/>
  </g>
</svg>
